<svg width="848" height="533" viewBox="0 0 848 533" fill="none" xmlns="http://www.w3.org/2000/svg">
<mask id="mask0" mask-type="alpha" maskUnits="userSpaceOnUse" x="0" y="0" width="848" height="533">
<rect width="848" height="533" fill="#C4C4C4"/>
</mask>
<g mask="url(#mask0)">
<rect x="153.005" y="-130" width="32" height="386" transform="rotate(39.9785 153.005 -130)" fill="#170F0C" fill-opacity="0.72"/>
<rect x="712.163" y="656.02" width="32" height="386" transform="rotate(-140.021 712.163 656.02)" fill="#170F0C" fill-opacity="0.72"/>
<rect x="191.005" y="-86" width="32" height="386" transform="rotate(39.9785 191.005 -86)" fill="#170F0C" fill-opacity="0.72"/>
<rect x="674.163" y="612.02" width="32" height="386" transform="rotate(-140.021 674.163 612.02)" fill="#170F0C" fill-opacity="0.72"/>
<rect x="285.728" y="-107" width="32" height="592.572" transform="rotate(39.9785 285.728 -107)" fill="#170F0C" fill-opacity="0.72"/>
<rect x="579.44" y="633.02" width="32" height="592.572" transform="rotate(-140.021 579.44 633.02)" fill="#170F0C" fill-opacity="0.72"/>
<rect x="323.728" y="-61" width="32" height="592.572" transform="rotate(39.9785 323.728 -61)" fill="#170F0C" fill-opacity="0.72"/>
<rect x="541.44" y="587.02" width="32" height="592.572" transform="rotate(-140.021 541.44 587.02)" fill="#170F0C" fill-opacity="0.72"/>
<rect x="376.647" y="-29" width="32" height="660.929" transform="rotate(39.9785 376.647 -29)" fill="#170F0C" fill-opacity="0.72"/>
<rect x="488.521" y="555.02" width="32" height="660.929" transform="rotate(-140.021 488.521 555.02)" fill="#170F0C" fill-opacity="0.72"/>
<rect x="395.521" y="565.758" width="32" height="805.441" transform="rotate(-140.021 395.521 565.758)" fill="#170F0C" fill-opacity="0.72"/>
<rect x="312.521" y="565.758" width="32" height="805.441" transform="rotate(-140.021 312.521 565.758)" fill="#170F0C" fill-opacity="0.72"/>
<rect x="231.521" y="565.758" width="32" height="805.441" transform="rotate(-140.021 231.521 565.758)" fill="#170F0C" fill-opacity="0.72"/>
<rect x="151.521" y="565.758" width="32" height="805.441" transform="rotate(-140.021 151.521 565.758)" fill="#170F0C" fill-opacity="0.72"/>
<rect x="70.5211" y="565.758" width="32" height="805.441" transform="rotate(-140.021 70.5211 565.758)" fill="#170F0C" fill-opacity="0.72"/>
<rect x="1.52109" y="565.758" width="32" height="805.441" transform="rotate(-140.021 1.52109 565.758)" fill="#170F0C" fill-opacity="0.72"/>
</g>
</svg>
